<svg width="121" height="66" viewBox="0 0 121 66" fill="none" xmlns="http://www.w3.org/2000/svg">
<path d="M27.6017 11.2687C25.7139 10.0065 23.5937 6.18388 30.2156 0.990906C32.9747 2.79402 37.3602 7.37393 32.8294 11.2687C33.1199 15.7764 29.867 23.2774 14.5322 17.2189C11.9183 16.1371 6.69057 16.2453 6.69057 25.3329C6.69057 34.4206 17.4366 31.6438 22.8095 29.1195C26.8756 26.9557 35.879 24.792 39.3642 33.447C42.8493 42.1019 40.2355 49.3144 38.4929 51.8387C36.8955 54.1828 31.9581 58.1136 24.9878 55.0843C18.0174 52.0551 15.9844 50.9372 15.8392 50.7569C14.751 50.2502 13.0046 51.9172 13.3533 55.6256L13.3659 55.7322C13.3976 55.9971 13.4211 56.1935 13.4172 56.1662C12.7033 54.8041 11.2213 49.4586 11.9183 46.4294C12.6154 43.4002 15.9844 44.0853 17.5817 44.8066C20.9217 46.4294 28.5601 49.4586 32.3938 48.5931C36.2275 47.7276 36.605 42.8232 36.3146 40.4791C36.0242 38.8563 34.6591 35.2861 31.5225 33.9879C28.3858 32.6897 21.2121 35.6107 18.0174 37.2335C11.5379 39.6156 6.69057 37.2335 4.07668 33.9879C1.46279 30.7423 -1.1511 23.1692 2.33409 16.678C5.81927 10.1868 10.7566 9.64585 12.7896 10.1868C26.0333 14.0815 28.1825 12.5308 27.6017 11.2687Z" fill="#5B3889"/>
<path d="M13.4172 56.1662C12.8377 52.08 14.6994 50.2262 15.8392 50.7569C15.9844 50.9372 18.0174 52.0551 24.9878 55.0843C31.9581 58.1136 36.8955 54.1828 38.4929 51.8387C40.2355 49.3144 42.8493 42.1019 39.3642 33.447C35.879 24.792 26.8756 26.9558 22.8095 29.1195C17.4365 31.6438 6.69057 34.4206 6.69057 25.3329C6.69057 16.2453 11.9183 16.1371 14.5322 17.2189C29.867 23.2774 33.1199 15.7764 32.8294 11.2687C37.3602 7.37393 32.9747 2.79402 30.2156 0.990906C23.5937 6.18387 25.7139 10.0065 27.6017 11.2687C28.1825 12.5308 26.0333 14.0815 12.7896 10.1868C10.7566 9.64585 5.81927 10.1868 2.33409 16.678C-1.1511 23.1692 1.46279 30.7423 4.07668 33.9879C6.69057 37.2335 11.5379 39.6156 18.0174 37.2335C21.2121 35.6107 28.3858 32.6897 31.5225 33.9879C34.6591 35.2861 36.0242 38.8563 36.3146 40.4791C36.605 42.8232 36.2275 47.7276 32.3938 48.5931C28.5601 49.4586 20.9217 46.4294 17.5817 44.8066C15.9844 44.0853 12.6154 43.4002 11.9183 46.4294C11.2213 49.4586 12.7033 54.8041 13.4172 56.1662ZM13.4172 56.1662C13.4284 56.245 13.2121 54.4615 13.2253 54.5434L13.4172 56.1662Z" stroke="#8E6CBB" stroke-width="0.871296"/>
<path d="M54.9117 28.9813C58.7993 28.9813 60.7432 31.382 60.7432 36.1835V45.6784H52.918V37.1056C52.918 36.0755 52.8266 35.3528 52.6439 34.9374C52.4611 34.5221 52.1787 34.3144 51.7965 34.3144C51.5141 34.3144 51.2815 34.4224 51.0987 34.6384C50.916 34.8378 50.7748 35.062 50.6751 35.3113C50.5588 35.6103 50.4757 35.9343 50.4259 36.2832V45.6784H42.9745V29.2305H49.4789V33.816H49.8527C49.8527 32.2709 50.2847 31.083 51.1486 30.2523C52.0291 29.405 53.2835 28.9813 54.9117 28.9813ZM69.5409 45.6784H61.1425L65.0302 29.2305H76.7431L80.4314 45.6784H72.2324L71.8087 42.1396H69.9645L69.5409 45.6784ZM70.7122 36.0838L70.1888 40.2207H71.5844L71.086 36.0838H70.7122ZM88.4158 37.3049V45.6784H80.9645V29.2305H88.4158V35.386H88.7398C89.2881 35.386 89.6453 35.2448 89.8114 34.9624C89.9942 34.6799 90.0855 34.3726 90.0855 34.0403V29.2305H97.8858V35.9592C97.8858 36.7068 97.6449 37.3132 97.1631 37.7784C96.6979 38.2436 96.1164 38.5427 95.4186 38.6756C94.7209 38.7919 93.9815 38.7337 93.2007 38.5012C92.4198 38.2686 91.7303 37.8283 91.1322 37.1803L90.9578 37.4295C91.0741 37.9446 91.2568 38.4098 91.506 38.8251C91.7054 39.174 91.9795 39.4897 92.3284 39.7721C92.694 40.0546 93.1508 40.1958 93.6991 40.1958C94.1311 40.1958 94.5215 40.1459 94.8704 40.0463C95.2193 39.93 95.51 39.8054 95.7426 39.6724C96.0251 39.5229 96.2743 39.3485 96.4903 39.1491L98.2596 44.7065C97.6615 45.1385 96.9721 45.4541 96.1912 45.6535C95.4103 45.8362 94.6544 45.9276 93.9234 45.9276C92.8767 45.9276 92.0128 45.7033 91.3316 45.2547C90.667 44.8062 90.1437 44.1915 89.7616 43.4106C89.3795 42.6297 89.1136 41.716 88.9641 40.6693C88.8146 39.6226 88.7398 38.5012 88.7398 37.3049H88.4158ZM109.395 40.1958C110.077 40.1958 110.733 40.1127 111.364 39.9466C112.012 39.7804 112.594 39.5977 113.109 39.3983C113.707 39.1657 114.272 38.8999 114.803 38.6008L116.598 44.1582C115.435 44.7896 114.164 45.2714 112.785 45.6036C111.422 45.9193 110.027 46.0771 108.598 46.0771C106.82 46.0771 105.292 45.8778 104.013 45.479C102.75 45.0637 101.711 44.4822 100.897 43.7346C100.083 42.9703 99.4852 42.0482 99.1031 40.9683C98.7209 39.8718 98.5299 38.6341 98.5299 37.2551C98.5299 36.0755 98.7292 34.979 99.128 33.9655C99.5433 32.9355 100.141 32.0466 100.922 31.299C101.72 30.5347 102.708 29.9366 103.888 29.5047C105.067 29.0727 106.43 28.8567 107.975 28.8567C109.221 28.8567 110.351 28.9647 111.364 29.1807C112.378 29.3967 113.242 29.7123 113.956 30.1277C114.67 30.543 115.219 31.0581 115.601 31.6728C116 32.2709 116.199 32.9521 116.199 33.7163C116.199 34.7132 115.966 35.5106 115.501 36.1087C115.053 36.6902 114.471 37.1471 113.757 37.4794C113.042 37.7951 112.253 38.0027 111.389 38.1024C110.525 38.2021 109.695 38.2519 108.897 38.2519H106.405C106.488 38.8833 106.754 39.3651 107.202 39.6974C107.651 40.0296 108.382 40.1958 109.395 40.1958ZM108.598 33.7662C107.884 33.7662 107.352 34.032 107.003 34.5636C106.671 35.0787 106.463 35.7681 106.38 36.6321H108.025C108.623 36.6321 109.13 36.5241 109.545 36.3081C109.96 36.0755 110.168 35.7017 110.168 35.1867C110.168 34.7547 110.052 34.4141 109.819 34.1649C109.587 33.8991 109.179 33.7662 108.598 33.7662Z" fill="#5B3889"/>
</svg>
