<svg width="42" height="46" viewBox="0 0 42 46" fill="none" xmlns="http://www.w3.org/2000/svg">
<path d="M32.3303 11.3137C35.23 11.3137 38.2717 13.372 39.3464 18.3736L41.1106 32.3905C42.4084 41.5293 37.197 45.2547 30.2012 45.2547H11.1806C4.16455 45.2547 -1.20905 42.6819 0.250948 32.3905L2.03539 18.3736C2.94789 13.2279 6.09093 11.3137 9.03121 11.3137H32.3303ZM13.9993 18.847C12.8793 18.847 11.9715 19.7685 11.9715 20.9053C11.9715 22.042 12.8793 22.9636 13.9993 22.9636C15.1192 22.9636 16.027 22.042 16.027 20.9053L16.0112 20.6471C15.8861 19.6322 15.033 18.847 13.9993 18.847ZM27.2812 18.847C26.1613 18.847 25.2534 19.7685 25.2534 20.9053C25.2534 22.042 26.1613 22.9636 27.2812 22.9636C28.4011 22.9636 29.3089 22.042 29.3089 20.9053C29.3089 19.7685 28.4011 18.847 27.2812 18.847Z" fill="#5B3889"/>
<path opacity="0.4" d="M32.0711 10.803C32.0783 10.9785 32.0441 11.1533 31.9712 11.3137H28.6739C28.61 11.1506 28.5762 10.9777 28.574 10.803C28.574 6.46424 24.9952 2.94695 20.5805 2.94695C16.1658 2.94695 12.587 6.46424 12.587 10.803C12.6172 10.972 12.6172 11.1448 12.587 11.3137H9.2097C9.17945 11.1448 9.17945 10.972 9.2097 10.803C9.46629 4.76512 14.5215 0 20.6704 0C26.8193 0 31.8745 4.76512 32.1311 10.803H32.0711Z" fill="#5B3889"/>
</svg>
