<svg width="33" height="35" viewBox="0 0 33 35" fill="none" xmlns="http://www.w3.org/2000/svg">
<path d="M11.7379 31.2778V26.3312C11.7379 25.0731 12.7636 24.0507 14.0345 24.0423H18.6896C19.9666 24.0423 21.0017 25.0671 21.0017 26.3312V31.2932C21.0014 32.3614 21.8626 33.2345 22.9414 33.2595H26.0448C29.1385 33.2595 31.6465 30.7766 31.6465 27.7138V13.6422C31.63 12.4373 31.0585 11.3059 30.0948 10.5698L19.481 2.10537C17.6216 0.631542 14.9784 0.631542 13.119 2.10537L2.55172 10.5852C1.58431 11.3182 1.01191 12.4516 1 13.6576V27.7138C1 30.7766 3.50797 33.2595 6.60172 33.2595H9.70516C10.8107 33.2595 11.7069 32.3723 11.7069 31.2778" stroke="#5B3889" stroke-width="1.5" stroke-linecap="round" stroke-linejoin="round"/>
</svg>
